<?xml version="1.0" encoding="UTF-8" standalone="no"?>
<svg width="309px" height="150px" viewBox="0 0 309 150" version="1.1" xmlns="http://www.w3.org/2000/svg" xmlns:xlink="http://www.w3.org/1999/xlink">
    <!-- Generator: Sketch 50.2 (55047) - http://www.bohemiancoding.com/sketch -->
    <title>FOURIER SERIES</title>
    <desc>Created with Sketch.</desc>
    <defs></defs>
    <g id="Page-1" stroke="none" stroke-width="1" fill="none" fill-rule="evenodd">
        <path d="M0.371875,56 L0.371875,0.5 L31.1859375,0.5 L31.1859375,6.6859375 L12.6859375,6.6859375 L12.6859375,25.1859375 L25.0578125,25.1859375 L25.0578125,31.3140625 L12.6859375,31.3140625 L12.6859375,56 L0.371875,56 Z M55.871875,0.5 L68.24375,0.5 C71.6161627,0.5 74.5115764,1.71405036 76.9300781,4.1421875 C79.3485798,6.57032464 80.5578125,9.46092073 80.5578125,12.8140625 L80.5578125,43.6859375 C80.5578125,47.0198083 79.3485798,49.9055868 76.9300781,52.3433594 C74.5115764,54.781132 71.6161627,56 68.24375,56 L55.871875,56 C52.4994623,56 49.6040486,54.7907673 47.1855469,52.3722656 C44.7670452,49.9537639 43.5578125,47.0583502 43.5578125,43.6859375 L43.5578125,12.8140625 C43.5578125,9.4416498 44.7670452,6.54623605 47.1855469,4.12773437 C49.6040486,1.7092327 52.4994623,0.5 55.871875,0.5 Z M55.871875,12.8140625 L55.871875,43.6859375 C55.871875,45.3432375 56.4740825,46.7789002 57.6785156,47.9929687 C58.8829487,49.2070373 60.3426998,49.8140625 62.0578125,49.8140625 C63.7729252,49.8140625 65.2326763,49.2070373 66.4371094,47.9929687 C67.6415425,46.7789002 68.24375,45.3432375 68.24375,43.6859375 L68.24375,12.8140625 C68.24375,11.1374916 67.6319072,9.69701123 66.4082031,8.49257813 C65.1844991,7.28814502 63.7343834,6.6859375 62.0578125,6.6859375 C60.3619707,6.6859375 58.9070373,7.28814502 57.6929687,8.49257813 C56.4789002,9.69701123 55.871875,11.1374916 55.871875,12.8140625 Z M117.557812,0.5 L129.871875,0.5 L129.871875,43.6859375 C129.871875,47.0198083 128.662642,49.9055868 126.244141,52.3433594 C123.825639,54.781132 120.930225,56 117.557812,56 L105.185937,56 C101.813525,56 98.9181111,54.7907673 96.4996094,52.3722656 C94.0811077,49.9537639 92.871875,47.0583502 92.871875,43.6859375 L92.871875,0.5 L105.185937,0.5 L105.185937,43.6859375 C105.185937,45.3432375 105.788145,46.7789002 106.992578,47.9929687 C108.197011,49.2070373 109.656762,49.8140625 111.371875,49.8140625 C113.086988,49.8140625 114.546739,49.2070373 115.751172,47.9929687 C116.955605,46.7789002 117.557812,45.3432375 117.557812,43.6859375 L117.557812,0.5 Z M142.185937,56 L142.185937,0.5 L166.871875,0.5 C170.244288,0.5 173.139701,1.71405036 175.558203,4.1421875 C177.976705,6.57032464 179.185937,9.46092073 179.185937,12.8140625 L179.185937,16.1671875 C179.185937,18.9229304 178.241676,21.5774612 176.353125,24.1308594 C174.464574,26.6842576 171.304189,27.9609375 166.871875,27.9609375 L173,27.9609375 C174.695842,27.9609375 176.150775,28.5679627 177.364844,29.7820312 C178.578912,30.9960998 179.185937,32.4510332 179.185937,34.146875 L179.185937,56 L166.871875,56 L166.871875,37.5 C166.871875,35.8041582 166.260032,34.3492248 165.036328,33.1351563 C163.812624,31.9210877 162.362508,31.3140625 160.685937,31.3140625 L154.5,31.3140625 L154.5,56 L142.185937,56 Z M154.5,25.1859375 L160.685937,25.1859375 C162.362508,25.1859375 163.812624,24.5740947 165.036328,23.3503906 C166.260032,22.1266866 166.871875,20.6765709 166.871875,19 L166.871875,12.8140625 C166.871875,11.1374916 166.260032,9.69701123 165.036328,8.49257813 C163.812624,7.28814502 162.362508,6.6859375 160.685937,6.6859375 L154.5,6.6859375 L154.5,25.1859375 Z M197.628125,56 L197.628125,0.5 L209.971094,0.5 L209.971094,56 L197.628125,56 Z M228.5,56 L228.5,0.5 L259.314062,0.5 L259.314062,6.6859375 L240.814062,6.6859375 L240.814062,25.1859375 L253.185937,25.1859375 L253.185937,31.3140625 L240.814062,31.3140625 L240.814062,49.8140625 L259.314062,49.8140625 L259.314062,56 L228.5,56 Z M271.685938,56 L271.685938,0.5 L296.371875,0.5 C299.744288,0.5 302.639701,1.71405036 305.058203,4.1421875 C307.476705,6.57032464 308.685938,9.46092073 308.685938,12.8140625 L308.685938,16.1671875 C308.685938,18.9229304 307.741676,21.5774612 305.853125,24.1308594 C303.964574,26.6842576 300.804189,27.9609375 296.371875,27.9609375 L302.5,27.9609375 C304.195842,27.9609375 305.650775,28.5679627 306.864844,29.7820312 C308.078912,30.9960998 308.685938,32.4510332 308.685938,34.146875 L308.685938,56 L296.371875,56 L296.371875,37.5 C296.371875,35.8041582 295.760032,34.3492248 294.536328,33.1351563 C293.312624,31.9210877 291.862508,31.3140625 290.185938,31.3140625 L284,31.3140625 L284,56 L271.685938,56 Z M284,25.1859375 L290.185938,25.1859375 C291.862508,25.1859375 293.312624,24.5740947 294.536328,23.3503906 C295.760032,22.1266866 296.371875,20.6765709 296.371875,19 L296.371875,12.8140625 C296.371875,11.1374916 295.760032,9.69701123 294.536328,8.49257813 C293.312624,7.28814502 291.862508,6.6859375 290.185938,6.6859375 L284,6.6859375 L284,25.1859375 Z M61.9710938,106.814062 L55.8429687,106.814062 C55.3033827,102.690084 53.357048,100.628125 50.0039062,100.628125 C47.8455621,100.628125 46.217193,101.148432 45.11875,102.189062 C44.020307,103.229693 43.4710938,104.780979 43.4710938,106.842969 C43.4710938,108.384643 44.0781189,109.829941 45.2921875,111.178906 L58.3578125,125.863281 C60.7666787,128.561211 61.9710938,131.461443 61.9710938,134.564062 L61.9710938,137.685938 C61.9710938,141.019808 60.7666787,143.905587 58.3578125,146.343359 C55.9489463,148.781132 53.0487149,150 49.6570313,150 L43.4710938,150 C39.3856567,150 36.3119895,148.969021 34.25,146.907031 C32.1880105,144.845042 31.1570313,141.771375 31.1570313,137.685938 L37.3429687,137.685938 C37.3044269,138.109898 37.2851562,138.447134 37.2851562,138.697656 C37.2851562,140.374227 37.9307227,141.646089 39.221875,142.513281 C40.5130273,143.380473 41.9294194,143.814062 43.4710938,143.814062 C45.6679797,143.814062 47.2481723,143.28412 48.2117188,142.224219 C49.1752652,141.164318 49.6570313,139.622666 49.6570313,137.599219 C49.6570313,136.038273 49.0500061,134.592975 47.8359375,133.263281 L34.7703125,118.636719 C32.3614463,115.95806 31.1570313,113.057828 31.1570313,109.935938 L31.1570313,106.814062 C31.1570313,103.460921 32.3614463,100.570325 34.7703125,98.1421875 C37.1791787,95.7140504 40.0794101,94.5 43.4710938,94.5 L49.6570313,94.5 C57.3654031,94.5 61.4700496,98.6046465 61.9710938,106.814062 Z M74.3429687,150 L74.3429687,94.5 L105.157031,94.5 L105.157031,100.685938 L86.6570313,100.685938 L86.6570313,119.185938 L99.0289062,119.185938 L99.0289062,125.314062 L86.6570313,125.314062 L86.6570313,143.814062 L105.157031,143.814062 L105.157031,150 L74.3429687,150 Z M117.528906,150 L117.528906,94.5 L142.214844,94.5 C145.587256,94.5 148.48267,95.7140504 150.901172,98.1421875 C153.319674,100.570325 154.528906,103.460921 154.528906,106.814062 L154.528906,110.167188 C154.528906,112.92293 153.584645,115.577461 151.696094,118.130859 C149.807543,120.684258 146.647158,121.960938 142.214844,121.960938 L148.342969,121.960938 C150.038811,121.960938 151.493744,122.567963 152.707813,123.782031 C153.921881,124.9961 154.528906,126.451033 154.528906,128.146875 L154.528906,150 L142.214844,150 L142.214844,131.5 C142.214844,129.804158 141.603001,128.349225 140.379297,127.135156 C139.155593,125.921088 137.705477,125.314062 136.028906,125.314062 L129.842969,125.314062 L129.842969,150 L117.528906,150 Z M129.842969,119.185938 L136.028906,119.185938 C137.705477,119.185938 139.155593,118.574095 140.379297,117.350391 C141.603001,116.126687 142.214844,114.676571 142.214844,113 L142.214844,106.814062 C142.214844,105.137492 141.603001,103.697011 140.379297,102.492578 C139.155593,101.288145 137.705477,100.685938 136.028906,100.685938 L129.842969,100.685938 L129.842969,119.185938 Z M172.971094,150 L172.971094,94.5 L185.314062,94.5 L185.314062,150 L172.971094,150 Z M203.842969,150 L203.842969,94.5 L234.657031,94.5 L234.657031,100.685938 L216.157031,100.685938 L216.157031,119.185938 L228.528906,119.185938 L228.528906,125.314062 L216.157031,125.314062 L216.157031,143.814062 L234.657031,143.814062 L234.657031,150 L203.842969,150 Z M277.842969,106.814062 L271.714844,106.814062 C271.175258,102.690084 269.228923,100.628125 265.875781,100.628125 C263.717437,100.628125 262.089068,101.148432 260.990625,102.189062 C259.892182,103.229693 259.342969,104.780979 259.342969,106.842969 C259.342969,108.384643 259.949994,109.829941 261.164062,111.178906 L274.229687,125.863281 C276.638554,128.561211 277.842969,131.461443 277.842969,134.564062 L277.842969,137.685938 C277.842969,141.019808 276.638554,143.905587 274.229687,146.343359 C271.820821,148.781132 268.92059,150 265.528906,150 L259.342969,150 C255.257532,150 252.183864,148.969021 250.121875,146.907031 C248.059886,144.845042 247.028906,141.771375 247.028906,137.685938 L253.214844,137.685938 C253.176302,138.109898 253.157031,138.447134 253.157031,138.697656 C253.157031,140.374227 253.802598,141.646089 255.09375,142.513281 C256.384902,143.380473 257.801294,143.814062 259.342969,143.814062 C261.539855,143.814062 263.120047,143.28412 264.083594,142.224219 C265.04714,141.164318 265.528906,139.622666 265.528906,137.599219 C265.528906,136.038273 264.921881,134.592975 263.707813,133.263281 L250.642187,118.636719 C248.233321,115.95806 247.028906,113.057828 247.028906,109.935938 L247.028906,106.814062 C247.028906,103.460921 248.233321,100.570325 250.642187,98.1421875 C253.051054,95.7140504 255.951285,94.5 259.342969,94.5 L265.528906,94.5 C273.237278,94.5 277.341925,98.6046465 277.842969,106.814062 Z" id="FOURIER-SERIES" fill="#000000"></path>
    </g>
</svg>